<svg width="754" height="760" viewBox="0 0 754 760" fill="none" xmlns="http://www.w3.org/2000/svg">
<rect width="754" height="760" fill="white"/>
<circle cx="377" cy="380" r="260.5" stroke="url(#paint0_linear_64_79)" stroke-opacity="0.8" stroke-width="25"/>
<ellipse cx="377" cy="494" rx="40" ry="180" transform="rotate(90 377 494)" fill="#004851"/>
<circle cx="377" cy="231" r="40" fill="#004851"/>
<ellipse cx="376.5" cy="317.5" rx="39.5" ry="73.5" transform="rotate(90 376.5 317.5)" fill="url(#paint1_linear_64_79)"/>
<ellipse cx="376.5" cy="408" rx="51" ry="73.5" transform="rotate(90 376.5 408)" fill="url(#paint2_linear_64_79)"/>
<path d="M376 282.5C344 283.5 308 293 308 318C308 332.5 322.5 342 353.5 351C384.5 360 385 357 417.5 368.5C435.372 374.824 449.453 393 445.5 414C437.876 454.5 360.5 461.5 344 462" stroke="#0D4951" stroke-width="15" stroke-linecap="round"/>
<defs>
<linearGradient id="paint0_linear_64_79" x1="607" y1="633.5" x2="171" y2="117.5" gradientUnits="userSpaceOnUse">
<stop stop-color="#8DBBC1"/>
<stop offset="1" stop-color="#004851"/>
</linearGradient>
<linearGradient id="paint1_linear_64_79" x1="331.966" y1="384.5" x2="453.899" y2="305.502" gradientUnits="userSpaceOnUse">
<stop stop-color="#004851"/>
<stop offset="1" stop-color="#5DA7B1"/>
</linearGradient>
<linearGradient id="paint2_linear_64_79" x1="319" y1="475" x2="450.5" y2="365" gradientUnits="userSpaceOnUse">
<stop stop-color="#004851"/>
<stop offset="1" stop-color="#5DA7B1"/>
</linearGradient>
</defs>
</svg>
